<mxfile host="app.diagrams.net" modified="2024-01-24T11:45:55.592Z" agent="Mozilla/5.0 (Macintosh; Intel Mac OS X 10_15_7) AppleWebKit/537.36 (KHTML, like Gecko) Chrome/120.0.0.0 Safari/537.36" version="23.0.1" etag="d_mohKNWbj1RLB6YEFyK" type="github">
  <diagram name="Page-1" id="Qb2LbxxDf1bSFHdJRDKK">
    <mxGraphModel>
      <root>
        <mxCell id="0" />
        <mxCell id="1" parent="0" />
      </root>
    </mxGraphModel>
  </diagram>
</mxfile>
